<svg xmlns="http://www.w3.org/2000/svg" xmlns:xlink="http://www.w3.org/1999/xlink" width="1200" zoomAndPan="magnify" viewBox="0 0 900 225" height="300" preserveAspectRatio="xMidYMid meet" version="1.0"><defs><g/><clipPath id="51544aa24c"><path d="M 39.84375 22.5 L 219.84375 22.5 L 219.84375 202.5 L 39.84375 202.5 Z M 39.84375 22.5 " clip-rule="nonzero"/></clipPath><clipPath id="eb9e85e5d2"><path d="M 129.84375 22.5 C 80.136719 22.5 39.84375 62.792969 39.84375 112.5 C 39.84375 162.207031 80.136719 202.5 129.84375 202.5 C 179.550781 202.5 219.84375 162.207031 219.84375 112.5 C 219.84375 62.792969 179.550781 22.5 129.84375 22.5 Z M 129.84375 22.5 " clip-rule="nonzero"/></clipPath><clipPath id="2412c918d0"><path d="M 17.34375 0 L 242.34375 0 L 242.34375 225 L 17.34375 225 Z M 17.34375 0 " clip-rule="nonzero"/></clipPath></defs><rect x="-90" width="1080" fill="#ffffff" y="-22.5" height="270" fill-opacity="1"/><rect x="-90" width="1080" fill="#ffffff" y="-22.5" height="270" fill-opacity="1"/><g clip-path="url(#51544aa24c)"><g clip-path="url(#eb9e85e5d2)"><path fill="#ffffff" d="M 39.84375 22.5 L 219.84375 22.5 L 219.84375 202.5 L 39.84375 202.5 Z M 39.84375 22.5 " fill-opacity="1" fill-rule="nonzero"/></g></g><g clip-path="url(#2412c918d0)"><path fill="#3a3b54" d="M 129.84375 0 C 160.898438 0 189.109375 12.597656 209.339844 33.003906 C 229.746094 53.234375 242.34375 81.445312 242.34375 112.5 C 242.34375 143.554688 229.746094 171.765625 209.339844 191.996094 C 189.109375 212.402344 160.898438 225 129.84375 225 C 98.789062 225 70.578125 212.402344 50.347656 191.996094 C 29.941406 171.765625 17.34375 143.554688 17.34375 112.5 C 17.34375 81.445312 29.941406 53.234375 50.347656 33.003906 C 70.578125 12.597656 98.789062 0 129.84375 0 Z M 201.886719 40.457031 C 183.433594 22.003906 158.058594 10.648438 129.84375 10.648438 C 101.808594 10.648438 76.253906 22.003906 57.800781 40.457031 C 39.347656 58.910156 27.992188 84.464844 27.992188 112.5 C 27.992188 140.714844 39.347656 166.089844 57.800781 184.542969 C 76.253906 202.996094 101.808594 214.351562 129.84375 214.351562 C 158.058594 214.351562 183.433594 202.996094 201.886719 184.542969 C 220.339844 166.089844 231.695312 140.714844 231.695312 112.5 C 231.695312 84.464844 220.339844 58.910156 201.886719 40.457031 Z M 201.886719 40.457031 " fill-opacity="1" fill-rule="nonzero"/></g><path fill="#427db8" d="M 129.84375 20.40625 C 180.769531 20.40625 221.9375 61.574219 221.9375 112.5 C 221.9375 163.425781 180.769531 204.59375 129.84375 204.59375 C 78.917969 204.59375 37.75 163.425781 37.75 112.5 C 37.75 61.574219 78.917969 20.40625 129.84375 20.40625 Z M 129.84375 139.472656 L 85.128906 113.386719 L 129.84375 38.859375 L 174.558594 113.386719 Z M 85.128906 120.128906 L 129.84375 186.140625 L 174.558594 120.128906 L 129.84375 147.988281 Z M 85.128906 120.128906 " fill-opacity="1" fill-rule="evenodd"/><g fill="#427db8" fill-opacity="1"><g transform="translate(256.893709, 171.000003)"><g><path d="M 97.234375 -50.984375 C 97.234375 -46.921875 97.117188 -43.816406 96.890625 -41.671875 L 20.15625 -41.671875 C 20.5 -34.671875 22.191406 -28.6875 25.234375 -23.71875 C 28.285156 -18.75 32.296875 -14.992188 37.265625 -12.453125 C 42.234375 -9.910156 47.65625 -8.640625 53.53125 -8.640625 C 61.207031 -8.640625 67.671875 -10.5 72.921875 -14.21875 C 78.171875 -17.945312 81.644531 -22.972656 83.34375 -29.296875 L 95.875 -29.296875 C 93.613281 -20.265625 88.785156 -12.894531 81.390625 -7.1875 C 73.992188 -1.488281 64.707031 1.359375 53.53125 1.359375 C 44.832031 1.359375 37.035156 -0.585938 30.140625 -4.484375 C 23.253906 -8.378906 17.863281 -13.910156 13.96875 -21.078125 C 10.070312 -28.253906 8.125 -36.644531 8.125 -46.25 C 8.125 -55.84375 10.046875 -64.253906 13.890625 -71.484375 C 17.734375 -78.710938 23.097656 -84.242188 29.984375 -88.078125 C 36.867188 -91.921875 44.71875 -93.84375 53.53125 -93.84375 C 62.332031 -93.84375 70.035156 -91.921875 76.640625 -88.078125 C 83.253906 -84.242188 88.335938 -79.078125 91.890625 -72.578125 C 95.453125 -66.085938 97.234375 -58.890625 97.234375 -50.984375 Z M 85.203125 -51.328125 C 85.316406 -58.210938 83.929688 -64.082031 81.046875 -68.9375 C 78.171875 -73.789062 74.25 -77.457031 69.28125 -79.9375 C 64.3125 -82.425781 58.890625 -83.671875 53.015625 -83.671875 C 44.210938 -83.671875 36.703125 -80.847656 30.484375 -75.203125 C 24.273438 -69.554688 20.832031 -61.597656 20.15625 -51.328125 Z M 85.203125 -51.328125 "/></g></g></g><g fill="#427db8" fill-opacity="1"><g transform="translate(362.257112, 171.000003)"><g><path d="M 28.96875 -82.5 L 28.96875 -25.0625 C 28.96875 -19.414062 30.039062 -15.519531 32.1875 -13.375 C 34.332031 -11.226562 38.113281 -10.15625 43.53125 -10.15625 L 54.375 -10.15625 L 54.375 0 L 41.671875 0 C 33.316406 0 27.101562 -1.945312 23.03125 -5.84375 C 18.96875 -9.738281 16.9375 -16.144531 16.9375 -25.0625 L 16.9375 -82.5 L 4.0625 -82.5 L 4.0625 -92.484375 L 16.9375 -92.484375 L 16.9375 -115.6875 L 28.96875 -115.6875 L 28.96875 -92.484375 L 54.375 -92.484375 L 54.375 -82.5 Z M 28.96875 -82.5 "/></g></g></g><g fill="#427db8" fill-opacity="1"><g transform="translate(422.561568, 171.000003)"><g><path d="M 57.59375 -94.1875 C 64.59375 -94.1875 70.882812 -92.71875 76.46875 -89.78125 C 82.0625 -86.84375 86.46875 -82.351562 89.6875 -76.3125 C 92.90625 -70.269531 94.515625 -62.898438 94.515625 -54.203125 L 94.515625 0 L 82.828125 0 L 82.828125 -52.84375 C 82.828125 -62.894531 80.3125 -70.570312 75.28125 -75.875 C 70.257812 -81.1875 63.40625 -83.84375 54.71875 -83.84375 C 45.789062 -83.84375 38.671875 -81.019531 33.359375 -75.375 C 28.054688 -69.726562 25.40625 -61.429688 25.40625 -50.484375 L 25.40625 0 L 13.546875 0 L 13.546875 -125.34375 L 25.40625 -125.34375 L 25.40625 -76.734375 C 28.34375 -82.265625 32.660156 -86.554688 38.359375 -89.609375 C 44.066406 -92.660156 50.476562 -94.1875 57.59375 -94.1875 Z M 57.59375 -94.1875 "/></g></g></g><g fill="#427db8" fill-opacity="1"><g transform="translate(529.788321, 171.000003)"><g><path d="M 97.234375 -50.984375 C 97.234375 -46.921875 97.117188 -43.816406 96.890625 -41.671875 L 20.15625 -41.671875 C 20.5 -34.671875 22.191406 -28.6875 25.234375 -23.71875 C 28.285156 -18.75 32.296875 -14.992188 37.265625 -12.453125 C 42.234375 -9.910156 47.65625 -8.640625 53.53125 -8.640625 C 61.207031 -8.640625 67.671875 -10.5 72.921875 -14.21875 C 78.171875 -17.945312 81.644531 -22.972656 83.34375 -29.296875 L 95.875 -29.296875 C 93.613281 -20.265625 88.785156 -12.894531 81.390625 -7.1875 C 73.992188 -1.488281 64.707031 1.359375 53.53125 1.359375 C 44.832031 1.359375 37.035156 -0.585938 30.140625 -4.484375 C 23.253906 -8.378906 17.863281 -13.910156 13.96875 -21.078125 C 10.070312 -28.253906 8.125 -36.644531 8.125 -46.25 C 8.125 -55.84375 10.046875 -64.253906 13.890625 -71.484375 C 17.734375 -78.710938 23.097656 -84.242188 29.984375 -88.078125 C 36.867188 -91.921875 44.71875 -93.84375 53.53125 -93.84375 C 62.332031 -93.84375 70.035156 -91.921875 76.640625 -88.078125 C 83.253906 -84.242188 88.335938 -79.078125 91.890625 -72.578125 C 95.453125 -66.085938 97.234375 -58.890625 97.234375 -50.984375 Z M 85.203125 -51.328125 C 85.316406 -58.210938 83.929688 -64.082031 81.046875 -68.9375 C 78.171875 -73.789062 74.25 -77.457031 69.28125 -79.9375 C 64.3125 -82.425781 58.890625 -83.671875 53.015625 -83.671875 C 44.210938 -83.671875 36.703125 -80.847656 30.484375 -75.203125 C 24.273438 -69.554688 20.832031 -61.597656 20.15625 -51.328125 Z M 85.203125 -51.328125 "/></g></g></g><g fill="#427db8" fill-opacity="1"><g transform="translate(635.151735, 171.000003)"><g><path d="M 25.40625 -76.0625 C 28 -81.820312 31.976562 -86.28125 37.34375 -89.4375 C 42.707031 -92.601562 49.285156 -94.1875 57.078125 -94.1875 L 57.078125 -81.8125 L 53.859375 -81.8125 C 45.285156 -81.8125 38.398438 -79.492188 33.203125 -74.859375 C 28.003906 -70.234375 25.40625 -62.503906 25.40625 -51.671875 L 25.40625 0 L 13.546875 0 L 13.546875 -92.484375 L 25.40625 -92.484375 Z M 25.40625 -76.0625 "/></g></g></g><g fill="#427db8" fill-opacity="1"><g transform="translate(696.472563, 171.000003)"><g><path d="M 19.484375 -109.9375 C 17.109375 -109.9375 15.070312 -110.78125 13.375 -112.46875 C 11.6875 -114.164062 10.84375 -116.257812 10.84375 -118.75 C 10.84375 -121.226562 11.6875 -123.285156 13.375 -124.921875 C 15.070312 -126.554688 17.109375 -127.375 19.484375 -127.375 C 21.847656 -127.375 23.878906 -126.554688 25.578125 -124.921875 C 27.273438 -123.285156 28.125 -121.226562 28.125 -118.75 C 28.125 -116.257812 27.273438 -114.164062 25.578125 -112.46875 C 23.878906 -110.78125 21.847656 -109.9375 19.484375 -109.9375 Z M 25.40625 -92.484375 L 25.40625 0 L 13.546875 0 L 13.546875 -92.484375 Z M 25.40625 -92.484375 "/></g></g></g><g fill="#427db8" fill-opacity="1"><g transform="translate(735.263913, 171.000003)"><g><path d="M 49.96875 -82.5 L 28.453125 -82.5 L 28.453125 0 L 16.59375 0 L 16.59375 -82.5 L 3.734375 -82.5 L 3.734375 -92.484375 L 16.59375 -92.484375 L 16.59375 -98.921875 C 16.59375 -108.972656 19.160156 -116.367188 24.296875 -121.109375 C 29.441406 -125.859375 37.773438 -128.234375 49.296875 -128.234375 L 49.296875 -118.0625 C 41.617188 -118.0625 36.222656 -116.59375 33.109375 -113.65625 C 30.003906 -110.71875 28.453125 -105.804688 28.453125 -98.921875 L 28.453125 -92.484375 L 49.96875 -92.484375 Z M 49.96875 -82.5 "/></g></g></g><g fill="#427db8" fill-opacity="1"><g transform="translate(790.317134, 171.000003)"><g><path d="M 89.78125 -92.484375 L 34.890625 43.53125 L 22.53125 43.53125 L 40.484375 -0.515625 L 2.546875 -92.484375 L 15.578125 -92.484375 L 47.09375 -13.546875 L 77.578125 -92.484375 Z M 89.78125 -92.484375 "/></g></g></g></svg>