<svg xmlns="http://www.w3.org/2000/svg" xmlns:xlink="http://www.w3.org/1999/xlink" width="1200" zoomAndPan="magnify" viewBox="0 0 900 225" height="300" preserveAspectRatio="xMidYMid meet" version="1.0"><defs><g/><clipPath id="9a463b64a7"><path d="M 46.171875 28.828125 L 213.515625 28.828125 L 213.515625 196.171875 L 46.171875 196.171875 Z M 46.171875 28.828125 " clip-rule="nonzero"/></clipPath><clipPath id="006c63cb9f"><path d="M 129.84375 28.828125 C 83.632812 28.828125 46.171875 66.289062 46.171875 112.5 C 46.171875 158.710938 83.632812 196.171875 129.84375 196.171875 C 176.054688 196.171875 213.515625 158.710938 213.515625 112.5 C 213.515625 66.289062 176.054688 28.828125 129.84375 28.828125 Z M 129.84375 28.828125 " clip-rule="nonzero"/></clipPath><clipPath id="57260d23a7"><path d="M 17.34375 0 L 242.34375 0 L 242.34375 225 L 17.34375 225 Z M 17.34375 0 " clip-rule="nonzero"/></clipPath></defs><rect x="-90" width="1080" fill="#ffffff" y="-22.5" height="270" fill-opacity="1"/><rect x="-90" width="1080" fill="#ffffff" y="-22.5" height="270" fill-opacity="1"/><g clip-path="url(#9a463b64a7)"><g clip-path="url(#006c63cb9f)"><path fill="#ffffff" d="M 46.171875 28.828125 L 213.515625 28.828125 L 213.515625 196.171875 L 46.171875 196.171875 Z M 46.171875 28.828125 " fill-opacity="1" fill-rule="nonzero"/></g></g><g clip-path="url(#57260d23a7)"><path fill="#3a3b54" d="M 129.84375 0 C 160.898438 0 189.109375 12.597656 209.339844 33.003906 C 229.746094 53.234375 242.34375 81.445312 242.34375 112.5 C 242.34375 143.554688 229.746094 171.765625 209.339844 191.996094 C 189.109375 212.402344 160.898438 225 129.84375 225 C 98.789062 225 70.578125 212.402344 50.347656 191.996094 C 29.941406 171.765625 17.34375 143.554688 17.34375 112.5 C 17.34375 81.445312 29.941406 53.234375 50.347656 33.003906 C 70.578125 12.597656 98.789062 0 129.84375 0 Z M 201.886719 40.457031 C 183.433594 22.003906 158.058594 10.648438 129.84375 10.648438 C 101.808594 10.648438 76.253906 22.003906 57.800781 40.457031 C 39.347656 58.910156 27.992188 84.464844 27.992188 112.5 C 27.992188 140.714844 39.347656 166.089844 57.800781 184.542969 C 76.253906 202.996094 101.808594 214.351562 129.84375 214.351562 C 158.058594 214.351562 183.433594 202.996094 201.886719 184.542969 C 220.339844 166.089844 231.695312 140.714844 231.695312 112.5 C 231.695312 84.464844 220.339844 58.910156 201.886719 40.457031 Z M 201.886719 40.457031 " fill-opacity="1" fill-rule="nonzero"/></g><path fill="#427db8" d="M 129.84375 20.40625 C 180.769531 20.40625 221.9375 61.574219 221.9375 112.5 C 221.9375 163.425781 180.769531 204.59375 129.84375 204.59375 C 78.917969 204.59375 37.75 163.425781 37.75 112.5 C 37.75 61.574219 78.917969 20.40625 129.84375 20.40625 Z M 129.84375 139.472656 L 85.128906 113.386719 L 129.84375 38.859375 L 174.558594 113.386719 Z M 85.128906 120.128906 L 129.84375 186.140625 L 174.558594 120.128906 L 129.84375 147.988281 Z M 85.128906 120.128906 " fill-opacity="1" fill-rule="evenodd"/><g fill="#3a3b54" fill-opacity="1"><g transform="translate(277.729589, 168.570106)"><g><path d="M 93.1875 -48.875 C 93.1875 -44.976562 93.082031 -42 92.875 -39.9375 L 19.328125 -39.9375 C 19.648438 -33.226562 21.269531 -27.492188 24.1875 -22.734375 C 27.113281 -17.972656 30.957031 -14.375 35.71875 -11.9375 C 40.476562 -9.5 45.675781 -8.28125 51.3125 -8.28125 C 58.664062 -8.28125 64.859375 -10.066406 69.890625 -13.640625 C 74.929688 -17.210938 78.257812 -22.03125 79.875 -28.09375 L 91.890625 -28.09375 C 89.722656 -19.425781 85.09375 -12.359375 78 -6.890625 C 70.914062 -1.429688 62.019531 1.296875 51.3125 1.296875 C 42.96875 1.296875 35.492188 -0.566406 28.890625 -4.296875 C 22.296875 -8.035156 17.128906 -13.34375 13.390625 -20.21875 C 9.660156 -27.09375 7.796875 -35.128906 7.796875 -44.328125 C 7.796875 -53.523438 9.632812 -61.585938 13.3125 -68.515625 C 16.988281 -75.441406 22.128906 -80.742188 28.734375 -84.421875 C 35.335938 -88.109375 42.863281 -89.953125 51.3125 -89.953125 C 59.75 -89.953125 67.132812 -88.109375 73.46875 -84.421875 C 79.800781 -80.742188 84.671875 -75.789062 88.078125 -69.5625 C 91.484375 -63.34375 93.1875 -56.445312 93.1875 -48.875 Z M 81.671875 -49.1875 C 81.773438 -55.789062 80.445312 -61.421875 77.6875 -66.078125 C 74.925781 -70.734375 71.164062 -74.25 66.40625 -76.625 C 61.644531 -79.007812 56.445312 -80.203125 50.8125 -80.203125 C 42.375 -80.203125 35.175781 -77.492188 29.21875 -72.078125 C 23.269531 -66.671875 19.972656 -59.039062 19.328125 -49.1875 Z M 81.671875 -49.1875 "/></g></g></g><g fill="#3a3b54" fill-opacity="1"><g transform="translate(378.716544, 168.570106)"><g><path d="M 27.765625 -79.0625 L 27.765625 -24.03125 C 27.765625 -18.613281 28.789062 -14.875 30.84375 -12.8125 C 32.90625 -10.757812 36.53125 -9.734375 41.71875 -9.734375 L 52.125 -9.734375 L 52.125 0 L 39.9375 0 C 31.925781 0 25.972656 -1.863281 22.078125 -5.59375 C 18.179688 -9.332031 16.234375 -15.476562 16.234375 -24.03125 L 16.234375 -79.0625 L 3.890625 -79.0625 L 3.890625 -88.640625 L 16.234375 -88.640625 L 16.234375 -110.890625 L 27.765625 -110.890625 L 27.765625 -88.640625 L 52.125 -88.640625 L 52.125 -79.0625 Z M 27.765625 -79.0625 "/></g></g></g><g fill="#3a3b54" fill-opacity="1"><g transform="translate(436.516151, 168.570106)"><g><path d="M 55.203125 -90.265625 C 61.910156 -90.265625 67.941406 -88.859375 73.296875 -86.046875 C 78.660156 -83.234375 82.882812 -78.929688 85.96875 -73.140625 C 89.050781 -67.347656 90.59375 -60.285156 90.59375 -51.953125 L 90.59375 0 L 79.390625 0 L 79.390625 -50.65625 C 79.390625 -60.289062 76.976562 -67.648438 72.15625 -72.734375 C 67.34375 -77.828125 60.769531 -80.375 52.4375 -80.375 C 43.882812 -80.375 37.066406 -77.664062 31.984375 -72.25 C 26.898438 -66.832031 24.359375 -58.878906 24.359375 -48.390625 L 24.359375 0 L 12.984375 0 L 12.984375 -120.140625 L 24.359375 -120.140625 L 24.359375 -73.546875 C 27.171875 -78.847656 31.304688 -82.957031 36.765625 -85.875 C 42.234375 -88.800781 48.378906 -90.265625 55.203125 -90.265625 Z M 55.203125 -90.265625 "/></g></g></g><g fill="#3a3b54" fill-opacity="1"><g transform="translate(539.289058, 168.570106)"><g><path d="M 93.1875 -48.875 C 93.1875 -44.976562 93.082031 -42 92.875 -39.9375 L 19.328125 -39.9375 C 19.648438 -33.226562 21.269531 -27.492188 24.1875 -22.734375 C 27.113281 -17.972656 30.957031 -14.375 35.71875 -11.9375 C 40.476562 -9.5 45.675781 -8.28125 51.3125 -8.28125 C 58.664062 -8.28125 64.859375 -10.066406 69.890625 -13.640625 C 74.929688 -17.210938 78.257812 -22.03125 79.875 -28.09375 L 91.890625 -28.09375 C 89.722656 -19.425781 85.09375 -12.359375 78 -6.890625 C 70.914062 -1.429688 62.019531 1.296875 51.3125 1.296875 C 42.96875 1.296875 35.492188 -0.566406 28.890625 -4.296875 C 22.296875 -8.035156 17.128906 -13.34375 13.390625 -20.21875 C 9.660156 -27.09375 7.796875 -35.128906 7.796875 -44.328125 C 7.796875 -53.523438 9.632812 -61.585938 13.3125 -68.515625 C 16.988281 -75.441406 22.128906 -80.742188 28.734375 -84.421875 C 35.335938 -88.109375 42.863281 -89.953125 51.3125 -89.953125 C 59.75 -89.953125 67.132812 -88.109375 73.46875 -84.421875 C 79.800781 -80.742188 84.671875 -75.789062 88.078125 -69.5625 C 91.484375 -63.34375 93.1875 -56.445312 93.1875 -48.875 Z M 81.671875 -49.1875 C 81.773438 -55.789062 80.445312 -61.421875 77.6875 -66.078125 C 74.925781 -70.734375 71.164062 -74.25 66.40625 -76.625 C 61.644531 -79.007812 56.445312 -80.203125 50.8125 -80.203125 C 42.375 -80.203125 35.175781 -77.492188 29.21875 -72.078125 C 23.269531 -66.671875 19.972656 -59.039062 19.328125 -49.1875 Z M 81.671875 -49.1875 "/></g></g></g><g fill="#3a3b54" fill-opacity="1"><g transform="translate(640.276023, 168.570106)"><g><path d="M 24.359375 -72.90625 C 26.847656 -78.425781 30.660156 -82.695312 35.796875 -85.71875 C 40.941406 -88.75 47.25 -90.265625 54.71875 -90.265625 L 54.71875 -78.421875 L 51.625 -78.421875 C 43.40625 -78.421875 36.804688 -76.203125 31.828125 -71.765625 C 26.847656 -67.328125 24.359375 -59.910156 24.359375 -49.515625 L 24.359375 0 L 12.984375 0 L 12.984375 -88.640625 L 24.359375 -88.640625 Z M 24.359375 -72.90625 "/></g></g></g><g fill="#3a3b54" fill-opacity="1"><g transform="translate(699.049786, 168.570106)"><g><path d="M 18.671875 -105.375 C 16.398438 -105.375 14.453125 -106.179688 12.828125 -107.796875 C 11.203125 -109.421875 10.390625 -111.425781 10.390625 -113.8125 C 10.390625 -116.195312 11.203125 -118.171875 12.828125 -119.734375 C 14.453125 -121.304688 16.398438 -122.09375 18.671875 -122.09375 C 20.941406 -122.09375 22.890625 -121.304688 24.515625 -119.734375 C 26.140625 -118.171875 26.953125 -116.195312 26.953125 -113.8125 C 26.953125 -111.425781 26.140625 -109.421875 24.515625 -107.796875 C 22.890625 -106.179688 20.941406 -105.375 18.671875 -105.375 Z M 24.359375 -88.640625 L 24.359375 0 L 12.984375 0 L 12.984375 -88.640625 Z M 24.359375 -88.640625 "/></g></g></g><g fill="#3a3b54" fill-opacity="1"><g transform="translate(736.229871, 168.570106)"><g><path d="M 47.890625 -79.0625 L 27.28125 -79.0625 L 27.28125 0 L 15.90625 0 L 15.90625 -79.0625 L 3.578125 -79.0625 L 3.578125 -88.640625 L 15.90625 -88.640625 L 15.90625 -94.8125 C 15.90625 -104.445312 18.367188 -111.535156 23.296875 -116.078125 C 28.222656 -120.628906 36.207031 -122.90625 47.25 -122.90625 L 47.25 -113.171875 C 39.882812 -113.171875 34.710938 -111.757812 31.734375 -108.9375 C 28.765625 -106.125 27.28125 -101.414062 27.28125 -94.8125 L 27.28125 -88.640625 L 47.890625 -88.640625 Z M 47.890625 -79.0625 "/></g></g></g><g fill="#3a3b54" fill-opacity="1"><g transform="translate(788.996363, 168.570106)"><g><path d="M 86.046875 -88.640625 L 33.453125 41.71875 L 21.59375 41.71875 L 38.796875 -0.484375 L 2.4375 -88.640625 L 14.9375 -88.640625 L 45.140625 -12.984375 L 74.359375 -88.640625 Z M 86.046875 -88.640625 "/></g></g></g></svg>